<?xml version="1.0" encoding="UTF-8" standalone="no"?>
<!-- Created with Inkscape (http://www.inkscape.org/) -->

<svg
   xmlns:dc="http://purl.org/dc/elements/1.1/"
   xmlns:cc="http://creativecommons.org/ns#"
   xmlns:rdf="http://www.w3.org/1999/02/22-rdf-syntax-ns#"
   xmlns:svg="http://www.w3.org/2000/svg"
   xmlns="http://www.w3.org/2000/svg"
   xmlns:sodipodi="http://sodipodi.sourceforge.net/DTD/sodipodi-0.dtd"
   xmlns:inkscape="http://www.inkscape.org/namespaces/inkscape"
   width="207.10008mm"
   height="292.76144mm"
   viewBox="0 0 207.10008 292.76144"
   version="1.1"
   id="svg8"
   inkscape:version="0.91 r13725"
   sodipodi:docname="cup.svg">
  <defs
     id="defs2" />
  <sodipodi:namedview
     id="base"
     pagecolor="#ffffff"
     bordercolor="#666666"
     borderopacity="1.0"
     inkscape:pageopacity="0.0"
     inkscape:pageshadow="2"
     inkscape:zoom="0.35"
     inkscape:cx="974.90889"
     inkscape:cy="607.05997"
     inkscape:document-units="mm"
     inkscape:current-layer="layer1"
     showgrid="false"
     inkscape:window-width="1855"
     inkscape:window-height="1056"
     inkscape:window-x="65"
     inkscape:window-y="24"
     inkscape:window-maximized="1"
     fit-margin-top="0"
     fit-margin-left="0"
     fit-margin-right="0"
     fit-margin-bottom="0" />
  <metadata
     id="metadata5">
    <rdf:RDF>
      <cc:Work
         rdf:about="">
        <dc:format>image/svg+xml</dc:format>
        <dc:type
           rdf:resource="http://purl.org/dc/dcmitype/StillImage" />
        <dc:title></dc:title>
      </cc:Work>
    </rdf:RDF>
  </metadata>
  <g
     inkscape:label="Layer 1"
     inkscape:groupmode="layer"
     id="layer1"
     transform="translate(-2.3107326,-1.4982194)">
    <path
       style="fill:#ffd645;stroke-width:0.60565394"
       d="m 28.969105,292.34933 c -1.695314,-1.69531 -1.910352,-3.18392 -1.910352,-13.22443 0,-14.12366 0.262029,-14.47567 10.774992,-14.47567 l 7.281456,0 0.28473,-24.25858 c 0.266282,-22.68628 0.40856,-24.39729 2.195097,-26.39916 1.050691,-1.17734 3.199839,-2.69781 4.775878,-3.37884 1.576042,-0.68102 6.509589,-4.91999 10.963437,-9.41993 l 8.097908,-8.1817 11.244409,0 11.244405,0 0,-19.01347 0,-19.01346 -9.790554,-6.97276 C 78.745718,144.1763 70.041674,136.91981 64.788208,131.88576 59.534737,126.85173 52.131213,120.23805 48.335921,117.18868 21.346247,95.503581 4.2385791,66.004118 2.5201019,38.186556 2.2088671,33.14849 2.2493517,27.453254 2.6100678,25.530472 l 0.6558476,-3.495968 17.4914046,0 17.491404,0 0.623019,-5.960746 C 39.214416,12.795347 40.45767,8.174683 41.634549,5.8056153 l 2.139783,-4.3073959 62.086448,0 62.08645,0 2.13977,4.3073959 c 1.17689,2.3690677 2.42015,6.9897317 2.76281,10.2681427 l 0.62302,5.960746 17.4914,0 17.4914,0 0.65586,3.495968 c 0.36072,1.922782 0.4012,7.618018 0.0899,12.656084 -1.71847,27.817562 -18.82615,57.317025 -45.81583,79.002124 -3.79529,3.04937 -11.19882,9.66305 -16.4523,14.69708 -5.25346,5.03405 -13.9575,12.29054 -19.34231,16.12557 l -9.79054,6.97276 0,19.01346 0,19.01347 11.24439,0 11.24441,0 8.09791,8.1817 c 4.45385,4.49994 9.3874,8.73891 10.96344,9.41993 1.57604,0.68103 3.72518,2.2015 4.77588,3.37884 1.78653,2.00187 1.92881,3.71288 2.19509,26.39916 l 0.28476,24.25858 7.44743,0 c 10.33554,0 10.60902,0.37743 10.60902,14.64163 0,9.87455 -0.21823,11.36635 -1.91035,13.05847 -1.8779,1.87789 -3.18391,1.91035 -76.89167,1.91035 -73.707755,0 -75.013771,-0.0325 -76.891675,-1.91035 z m 145.186765,-8.59659 c 1.0613,-1.0613 1.91035,-3.18391 1.91035,-4.77588 0,-1.59196 -0.84905,-3.71457 -1.91035,-4.77588 -1.8737,-1.8737 -3.18393,-1.91036 -68.29509,-1.91036 -65.111171,0 -66.421386,0.0366 -68.295089,1.91036 -1.061309,1.06131 -1.910354,3.18392 -1.910354,4.77588 0,1.59197 0.849045,3.71458 1.910354,4.77588 1.873703,1.8737 3.183918,1.91035 68.295089,1.91035 65.11116,0 66.42139,-0.0366 68.29509,-1.91035 z m -17.73899,-19.64933 c 2.21984,-2.21985 2.23215,-40.01299 0.0141,-43.17975 l -1.48698,-2.12289 -49.08322,0 -49.083246,0 -1.486927,2.12289 c -2.218082,3.16676 -2.205776,40.9599 0.01408,43.17975 1.325573,1.32557 7.23412,1.50099 50.556113,1.50099 43.32199,0 49.23053,-0.17541 50.5561,-1.50099 z M 83.175346,246.42436 c -2.420123,-1.40958 -2.191296,-6.26434 0.359603,-7.62956 3.189031,-1.70671 6.565409,0.26358 6.565409,3.83128 0,3.97922 -3.406508,5.84764 -6.925027,3.79828 z m 19.012774,-0.71508 c -2.05463,-2.27033 -2.00152,-4.26265 0.16595,-6.22418 2.27034,-2.05463 4.26266,-2.00151 6.22419,0.16595 2.05463,2.27034 2.00151,4.26266 -0.16596,6.22419 -2.27034,2.05463 -4.26265,2.00151 -6.22418,-0.16596 z m 18.23909,0.71508 c -2.42012,-1.40958 -2.1913,-6.26434 0.35961,-7.62956 3.18903,-1.70671 6.56541,0.26358 6.56541,3.83128 0,3.97922 -3.40651,5.84764 -6.92503,3.79828 z m 18.35087,-37.41414 c 1.32193,-2.36369 1.32193,-2.88979 1e-5,-5.25348 l -1.46902,-2.62673 -31.00696,-0.26213 c -30.658765,-0.25921 -31.025737,-0.23924 -32.678523,1.77737 -2.066701,2.52166 -2.116014,4.58898 -0.17556,7.35939 l 1.496013,2.13586 31.18249,-0.25177 31.18251,-0.25178 z m -28.61901,-38.42643 0,-22.42722 4.0595,-2.04612 c 10.94265,-5.51545 24.09778,-17.52746 31.60837,-28.86176 7.58336,-11.44411 13.47488,-27.378668 15.95654,-43.15709 2.25413,-14.331586 1.28517,-40.17152 -2.10428,-56.116594 l -0.96445,-4.537086 -52.85397,0 -52.853974,0 -0.964449,4.537086 C 48.65291,33.92008 47.683949,59.760014 49.938061,74.0916 c 2.481679,15.778422 8.373194,31.71298 15.956557,43.15709 7.51059,11.3343 20.665719,23.34631 31.608369,28.86176 l 4.059493,2.04612 0,22.42722 0,22.42723 4.2983,0 4.29829,0 z m -15.812529,-99.0167 0.672302,-6.822798 -4.962764,-5.025185 -4.962762,-5.025185 5.60785,-1.112673 c 3.084312,-0.611972 6.34409,-1.321887 7.243951,-1.577594 0.899853,-0.255705 3.040752,-3.019995 4.757562,-6.142863 1.7168,-3.122868 3.35287,-5.677944 3.63569,-5.677944 0.28281,0 1.91888,2.555076 3.63568,5.677944 1.71681,3.122868 3.85771,5.887158 4.75756,6.142863 0.89987,0.255704 4.15964,0.965622 7.24395,1.577594 l 5.60786,1.112673 -4.96277,5.025185 -4.96276,5.025185 0.6723,6.822798 c 0.46868,4.75647 0.35206,6.822802 -0.38514,6.822802 -0.58158,0 -3.431,-1.164114 -6.33205,-2.586921 l -5.27463,-2.586921 -5.27463,2.586921 c -2.901052,1.422807 -5.750475,2.586921 -6.332065,2.586921 -0.737184,0 -0.853821,-2.066332 -0.385134,-6.822802 z M 41.888824,89.735719 C 38.512706,79.104258 36.610513,64.214234 36.610513,48.418052 l 0,-13.966261 -11.122647,0 -11.122649,0 0.584901,6.26356 c 1.725128,18.47399 9.882757,36.045697 24.048322,51.800604 2.498242,2.778546 4.684903,4.909246 4.859242,4.73491 0.174333,-0.174333 -0.711646,-3.55616 -1.968858,-7.515146 z M 179.17776,84.598534 c 9.89172,-13.034289 16.17689,-28.711119 17.59367,-43.883183 l 0.58491,-6.26356 -11.12266,0 -11.12264,0 -0.005,14.088851 c -0.008,18.612377 -2.32183,33.695267 -7.3236,47.727738 -1.03342,2.899275 5.1268,-3.409009 11.39595,-11.669846 z"
       id="path66"
       inkscape:connector-curvature="0" />
  </g>
</svg>
