<svg class="navbar2_logo" fill="none" preserveaspectratio="none" vector-effect="non-scaling-stroke" viewBox="0 0 178 23" width="100%" xmlns="http://www.w3.org/2000/svg"><g clip-path="url(#clip0_40_8792)"><g clip-path="url(#clip1_40_8792)"><path d="M170.973 13.3342C168.284 13.3342 166.026 10.9211 166.026 8.05017C166.026 5.17925 168.257 2.7358 170.973 2.7358C173.69 2.7358 175.954 5.14889 175.954 8.17412C175.954 10.9843 173.692 13.3367 170.973 13.3367M168.102 21.7345H170.424L175.526 14.1891C177.573 11.1639 178 10.0636 178 8.11088C178 4.10929 174.884 0.901944 170.973 0.901944C167.063 0.901944 163.977 4.13964 163.977 8.08053C163.977 12.0214 167.032 15.1984 170.574 15.1984C171.338 15.1984 171.95 15.077 172.835 14.7102L168.1 21.737L168.102 21.7345ZM129.045 8.69012C129.045 7.22304 129.381 5.69525 129.839 4.93136C130.634 3.64893 132.192 2.73074 133.596 2.73074C134.878 2.73074 136.315 3.49463 137.139 4.59494C137.782 5.4499 138.149 6.97768 138.149 8.68759V14.002C138.149 15.8662 137.903 17.2093 137.415 18.0339C136.56 19.4706 135.214 20.2649 133.596 20.2649C132.098 20.2649 130.907 19.6224 129.991 18.3703C129.318 17.4547 129.043 16.109 129.043 14.002V8.68759L129.045 8.69012ZM140.195 8.23229C140.195 3.98534 137.415 0.899414 133.596 0.899414C131.671 0.899414 129.839 1.78472 128.615 3.28216C127.484 4.6253 126.996 6.15308 126.996 8.23229V14.3409C126.996 16.4176 127.333 17.8543 128.066 19.0457C129.318 21.001 131.304 22.1013 133.596 22.1013C135.703 22.1013 137.536 21.1856 138.819 19.4732C139.798 18.1604 140.195 16.663 140.195 14.3409V8.23229ZM152.918 0.899414L145.12 16.1444V17.9783H155.445V21.7345H157.491V17.9783H159.355V16.1444H157.491V8.95066H155.445V16.1444H147.179L154.977 0.899414H152.918ZM108.296 21.7345H121.31V19.9007H111.046L117.675 13.577C120.455 10.9489 121.401 9.26937 121.401 7.13198C121.401 3.67928 118.56 0.899414 115.047 0.899414C111.167 0.899414 108.448 3.64893 108.448 7.58981V7.86552H110.464C110.494 6.58309 110.615 5.78884 111.013 5.0553C111.746 3.64893 113.304 2.73327 114.923 2.73327C117.336 2.73327 119.352 4.71888 119.352 7.07127C119.352 8.17159 118.864 9.30225 117.915 10.4633C117.397 11.1057 116.969 11.5332 115.472 12.9674L108.293 19.9032V21.737L108.296 21.7345Z" fill="currentColor"></path><path clip-rule="evenodd" d="M27.1359 0.557617C21.1967 0.557617 15.9658 5.36863 15.9658 11.3862C15.9658 17.4038 21.002 22.4424 27.1637 22.4424C33.3254 22.4424 38.3059 17.5732 38.3059 11.5C38.3059 5.42681 33.1889 0.557617 27.1359 0.557617ZM27.1637 18.628C23.1849 18.628 19.9775 15.4232 19.9775 11.4444C19.9775 7.46555 23.2936 4.37456 27.1333 4.37456C30.9731 4.37456 34.2892 7.6072 34.2892 11.5304C34.2892 15.4536 31.0236 18.6305 27.1612 18.6305L27.1637 18.628Z" fill="currentColor" fill-rule="evenodd"></path><path clip-rule="evenodd" d="M4.3886 4.71383H0V0.899414H12.7914V4.71383H8.40284V22.1013H4.3886V4.71383Z" fill="currentColor" fill-rule="evenodd"></path><path clip-rule="evenodd" d="M47.5357 16.1798V22.1013H43.5215V0.899414H47.5357V9.93208V16.1798Z" fill="currentColor" fill-rule="evenodd"></path><path clip-rule="evenodd" d="M51.53 11.5003L60.0087 0.899414H54.8461L48.3682 9.10748V11.5003V13.8932L54.8587 22.1013H60.0213L51.53 11.5003Z" fill="currentColor" fill-rule="evenodd"></path><path clip-rule="evenodd" d="M64.7109 4.71383V0.899414H77.2773V4.71383H68.7252H64.7109Z" fill="currentColor" fill-rule="evenodd"></path><path clip-rule="evenodd" d="M68.7252 9.47949H76.9914V13.2939H68.7252V18.287H77.2773V22.1015H64.7109V9.47949H68.7252Z" fill="currentColor" fill-rule="evenodd"></path><path clip-rule="evenodd" d="M96.5238 14.3637V0.899414H100.538V22.1013H97.0171L87.2281 7.65811V22.1013H83.2139V0.899414H87.4178L96.5238 14.3637Z" fill="currentColor" fill-rule="evenodd"></path></g></g></svg>